<svg width="343" height="651" viewBox="0 0 343 651" fill="none" xmlns="http://www.w3.org/2000/svg">
    <g clip-path="url(#clip0_1354_108)">
        <rect y="0.87207" width="343" height="650" rx="16" fill="url(#paint0_linear_1354_108)"/>
        <path fill-rule="evenodd" clip-rule="evenodd" d="M-272.252 -46.9466L-217.364 -20.3431L-111.106 -20.3431L-149.891 -46.7037L-149.663 -46.9466L-272.252 -46.9466ZM-178.171 2.25155L-218.043 -17.0735L-317.807 -17.0735L-267.229 2.25155H-178.171ZM-171.425 5.52116L-134.061 23.6306L-211.276 23.6306L-258.672 5.52116L-171.425 5.52116ZM-96.98 41.6033L-127.315 26.9002L-202.719 26.9002L-164.238 41.6033L-96.98 41.6033ZM-90.2341 44.8729L-66.9124 56.1765L-126.096 56.1765L-155.68 44.8729L-90.2341 44.8729ZM-36.8486 70.7478L-60.1665 59.4461L-117.539 59.4461L-87.96 70.7478L-36.8486 70.7478ZM-30.1028 74.0174L-6.78296 85.32L-49.8213 85.32L-79.4028 74.0174L-30.1028 74.0174ZM23.2827 99.8923L-0.0371094 88.5896L-41.2642 88.5896L-11.6826 99.8923L23.2827 99.8923ZM30.0286 103.162L31.4939 103.872L31.9692 103.162L686.249 103.162L686.291 103.424L687.932 103.162L1064.33 103.162V102.391L1212.06 88.5895L1219.47 88.5895V87.8971L1368.05 74.0172H1374.28V73.4357L1524.03 59.446H1531.43V58.7543L1680.03 44.8727H1686.59V44.2602L1872.42 26.9001H1879.89V26.2021L2101.27 5.52116H2106.3V5.05108L2343.14 -17.0735H2356.99V-18.3679L2662.91 -46.9466H2671.46V-47.7447L2671.51 -47.7499L2671.46 -48.3503V-50.2162H2671.28L2671.21 -51.0054L2662.76 -50.2162L2543.05 -50.2162L2542.96 -51.1643L2533.34 -50.2162H2414.83L2414.72 -51.2954L2404.36 -50.2162L2286.49 -50.2162L2286.43 -50.7648L2281.44 -50.2162H2158.81L2158.7 -51.1875L2150.41 -50.2162L2030.57 -50.2162L2030.43 -51.3223L2021.61 -50.2162H1902.26L1902.17 -50.9285L1896.85 -50.2162L1773.99 -50.2162L1773.88 -50.9798L1768.59 -50.2162H1632.4L1632.31 -50.7727L1628.82 -50.2162L1520.74 -50.2162L1520.51 -51.5483L1512.73 -50.2162L1391.03 -50.2162L1390.78 -51.5217L1383.86 -50.2162H1261.37L1261.21 -50.9805L1257.61 -50.2162L1133.35 -50.2162L1133.31 -50.3629L1132.7 -50.2162H1005.41L1005.3 -50.6172L1003.83 -50.2162L877.29 -50.2162L876.824 -51.2837L873.444 -50.2162H747.497L746.824 -51.489L743.499 -50.2162L619.27 -50.2162L618.5 -51.3475L616.205 -50.2162H490.682L489.961 -50.9715L488.869 -50.2162L361.593 -50.2162L361.381 -50.3484L361.267 -50.2162L-530.078 -50.2162L-532.188 -50.8862L-532.4 -50.2162H-658.305L-660.198 -50.7299L-660.337 -50.2162L-785.387 -50.2162L-788.063 -50.8506L-788.214 -50.2162H-913.115L-916.168 -50.8579L-916.303 -50.2162L-1041.74 -50.2162L-1044.26 -50.6925L-1044.35 -50.2162L-1168.51 -50.2162L-1172.71 -50.9351L-1172.83 -50.2162H-1298.33L-1301.07 -50.646L-1301.14 -50.2162L-1425.62 -50.2162L-1429.33 -50.7518L-1429.4 -50.2162H-1554.82L-1557.75 -50.6082L-1557.8 -50.2162L-1685.02 -50.2162L-1686.13 -50.355L-1686.15 -50.2162H-1814.59L-1814.73 -50.2334L-1814.74 -50.2162L-1940.12 -50.2162L-1943.02 -50.535L-1943.06 -50.2162L-2195.61 -50.2162L-2199.85 -50.6467L-2199.9 -50.2162L-2323.83 -50.2162L-2328.2 -50.6366L-2328.24 -50.2162H-2328.48V-47.7729L-2328.51 -47.382L-2328.48 -47.3783V-46.9466H-2323.98L-2022.72 -17.9861V-17.0735H-2013.23L-1779.28 5.41627V5.52116H-1778.19L-1368.88 44.873H-1368.83L-762.57 103.153V103.162H-762.473L-761.436 103.262L-761.426 103.162L-715.426 103.162L-714.546 103.251L-714.537 103.162L-621.681 103.162L-620.785 103.255L-620.775 103.162L-574.519 103.162L-573.908 103.229L-573.9 103.162L-528.105 103.162L-527.054 103.285L-527.04 103.162L-481.28 103.162L-480.175 103.3L-480.158 103.162L-433.915 103.162L-433.295 103.245L-433.284 103.162L-386.918 103.162L-386.434 103.232L-386.424 103.162L-339.797 103.162L-339.561 103.199L-339.555 103.162L-293.196 103.162L-292.712 103.245L-292.698 103.162L-246.35 103.162L-245.854 103.256L-245.836 103.162L-199.422 103.162L-199.008 103.249L-198.99 103.162L-152.491 103.162L-152.15 103.243L-152.131 103.162L-105.566 103.162L-105.327 103.227L-105.309 103.162L-12.2197 103.162L-10.9263 103.656L-10.6655 103.162L30.0286 103.162ZM-117.615 99.8923L-159.267 88.5896L-199.792 88.5896L-152.109 99.8923L-117.615 99.8923ZM-166.285 99.8923L-213.968 88.5896L-252.846 88.5896L-199.082 99.8923L-166.285 99.8923ZM-214.975 99.8923L-268.739 88.5896L-305.958 88.5896L-246.045 99.8923L-214.975 99.8923ZM-263.682 99.8923L-323.594 88.5896L-358.847 88.5897L-292.917 99.8923L-263.682 99.8923ZM-312.267 99.8923L-378.197 88.5897L-411.735 88.5897L-339.542 99.8923L-312.267 99.8923ZM-360.68 99.8923L-432.874 88.5897L-464.911 88.5897L-386.683 99.8923L-360.68 99.8923ZM-409.548 99.8923L-487.776 88.5897L-518.114 88.5897L-433.697 99.8923L-409.548 99.8923ZM-458.335 99.8923L-542.751 88.5897L-571.729 88.5897L-481.077 99.8923L-458.335 99.8923ZM-507.503 99.8923L-598.156 88.5897L-624.797 88.5897L-527.915 99.8923L-507.503 99.8923ZM-556.131 99.8923L-653.013 88.5897L-677.179 88.5897L-574.34 99.8923L-556.131 99.8923ZM-604.268 99.8923L-707.107 88.5897L-730.723 88.5897L-621.512 99.8923L-604.268 99.8923ZM-653.273 99.8923L-762.484 88.5897L-826.725 88.5897L-715.26 99.8923L-653.273 99.8923ZM-747.67 99.8923L-859.135 88.5897L-879.893 88.5897L-762.316 99.8923L-747.67 99.8923ZM-105.13 99.8923L-146.782 88.5896L-103.855 88.5896L-68.2695 99.8923L-105.13 99.8923ZM-57.4685 99.8923L-20.7769 99.8923L-50.3584 88.5896L-93.0544 88.5896L-57.4685 99.8923ZM1062.45 99.8922L1062.4 99.2872L1176.91 88.5895L1158.22 88.5895L1043.54 99.8922L1062.45 99.8922ZM1014.09 99.8922L1014.05 99.5124L1124.89 88.5895L1103.56 88.5895L995.065 99.8922L1014.09 99.8922ZM967.178 99.8922L967.139 99.5142L1072 88.5895L1049.49 88.5895L946.737 99.8922L967.178 99.8922ZM920.293 99.8922L920.252 99.5162L1019.58 88.5895L994.627 88.5895L898.228 99.8922L920.293 99.8922ZM873.378 99.8922L873.334 99.5189L966.55 88.5895L939.99 88.5895L849.775 99.8922L873.378 99.8922ZM826.475 99.8922L826.428 99.522L913.689 88.5895L885.734 88.5895L801.396 99.8922L826.475 99.8922ZM779.565 99.8922L779.516 99.5256L861.118 88.5895L831.149 88.5895L752.954 99.8922L779.565 99.8922ZM732.655 99.8922L732.602 99.5303L808.294 88.5895L779.297 88.5896L708.432 99.8922L732.655 99.8922ZM687.673 99.8922L758.538 88.5896L721.049 88.5896L655.006 99.8922L687.673 99.8922ZM638.837 99.8922L638.745 99.3579L701.667 88.5896L666.116 88.5896L606.236 99.8922L638.837 99.8922ZM591.919 99.8922L591.805 99.2887L648.488 88.5896L618.728 88.5896L565.422 99.8922L591.919 99.8922ZM549.659 99.8922L602.965 88.5896L563.862 88.5896L516.393 99.8922L549.659 99.8922ZM502.278 99.8922L549.746 88.5896L508.563 88.5896L467.225 99.8922L502.278 99.8922ZM455.241 99.8922L455.212 99.787L496.166 88.5896L444.743 88.5896L408.956 99.8922L455.241 99.8922ZM400.182 99.8922L399.938 99.3308L433.947 88.5896L389.947 88.5896L360.419 99.8922L400.182 99.8922ZM353.738 99.8922L353.334 99.1285L380.867 88.5896L341.915 88.5896L318.984 99.8922L353.738 99.8922ZM313.221 99.8922L312.829 99.3163L334.591 88.5896L293.825 88.5896L277.48 99.8922L313.221 99.8922ZM272.491 99.8922L272.217 99.6057L288.147 88.5896L245.817 88.5896L236.069 99.8922L272.491 99.8922ZM231.802 99.8922L241.551 88.5896L197.824 88.5896L194.671 99.8922L231.802 99.8922ZM191.286 99.8923L194.439 88.5896L149.805 88.5896L153.249 99.8923L191.286 99.8923ZM149.841 99.8923L146.397 88.5896L102.789 88.5896L112.832 99.8923L149.841 99.8923ZM108.51 99.8923L98.4673 88.5896L54.917 88.5896L71.5471 99.8923L108.51 99.8923ZM65.802 99.8923L30.7075 99.8923L7.3877 88.5896L49.1719 88.5896L65.802 99.8923ZM-88.4971 74.0174L-58.9155 85.32L-103.349 85.32L-138.935 74.0174L-88.4971 74.0174ZM-114.15 85.32L-158.831 85.32L-200.483 74.0174L-149.736 74.0174L-114.15 85.32ZM-212.968 74.0174L-171.316 85.32L-213.586 85.32L-261.27 74.0174L-212.968 74.0174ZM-275.446 74.0174L-227.762 85.32L-268.399 85.32L-322.163 74.0174L-275.446 74.0174ZM-338.056 74.0174L-284.292 85.32L-323.289 85.32L-383.202 74.0174L-338.056 74.0174ZM-400.839 74.0174L-340.926 85.32L-377.919 85.32L-443.848 74.0174L-400.839 74.0174ZM-463.198 74.0174L-397.269 85.32L-432.619 85.3201L-504.812 74.0174L-463.198 74.0174ZM-525.951 74.0174L-453.758 85.3201L-487.541 85.3201L-565.769 74.0174L-525.951 74.0174ZM-588.634 74.0174L-510.406 85.3201L-542.533 85.3201L-626.95 74.0174L-588.634 74.0174ZM-651.587 74.0174L-567.171 85.3201L-597.953 85.3201L-688.605 74.0174L-651.587 74.0174ZM-715.032 74.0174L-624.38 85.3201L-652.823 85.3201L-749.705 74.0174L-715.032 74.0174ZM-777.92 74.0174L-681.039 85.3201L-706.928 85.3201L-809.766 74.0174L-777.92 74.0174ZM-839.695 74.0174L-736.856 85.3201L-762.316 85.3201L-871.527 74.0174L-839.695 74.0174ZM-903.287 74.0174L-794.076 85.3201L-858.969 85.3201L-970.435 74.0175L-903.287 74.0174ZM-1002.84 74.0175L-891.379 85.3201L-913.861 85.3201V85.3243L-1031.48 74.0175L-1002.84 74.0175ZM1332.9 74.0173L1211.91 85.3199L1191.4 85.3199L1306.09 74.0173L1332.9 74.0173ZM1272.75 74.0173L1158.06 85.3199L1134.94 85.3199L1243.43 74.0173L1272.75 74.0173ZM1211.88 74.0173L1103.39 85.3199L1079.21 85.3199L1181.96 74.0173L1211.88 74.0173ZM1152.06 74.0173L1049.31 85.3199L1022.51 85.3199L1118.91 74.0173L1152.06 74.0173ZM1090.84 74.0173L994.436 85.3199L966.087 85.3199L1056.3 74.0173L1090.84 74.0173ZM1030 74.0173L939.786 85.3199L910.131 85.3199L994.468 74.0173L1030 74.0173ZM969.853 74.0173L885.516 85.3199L853.769 85.3199L931.964 74.0173L969.853 74.0173ZM909.109 74.0173L830.914 85.3199L799.797 85.3199L870.662 74.0173L909.109 74.0173ZM849.903 74.0173L779.038 85.3199L740.154 85.32L806.197 74.0173L849.903 74.0173ZM786.815 74.0173L720.771 85.32L683.438 85.32L743.318 74.0173L786.815 74.0173ZM725.69 74.0173L665.81 85.32L634.148 85.32L687.454 74.0173L725.69 74.0173ZM671.691 74.0173L618.385 85.32L577.593 85.32L625.062 74.0173L671.691 74.0173ZM610.946 74.0173L563.478 85.32L520.521 85.32L561.859 74.0173L610.946 74.0173ZM549.462 74.0173L508.124 85.32L455.096 85.32L490.883 74.0173L549.462 74.0173ZM480.087 74.0173L444.3 85.32L398.489 85.32L428.017 74.0173L480.087 74.0173ZM418.938 74.0173L389.409 85.32L348.549 85.32L371.48 74.0173L418.938 74.0173ZM364.156 74.0173L341.225 85.32L298.553 85.32L314.897 74.0173L364.156 74.0173ZM309.22 74.0173L292.875 85.32L248.637 85.32L258.385 74.0173L309.22 74.0173ZM254.119 74.0173L244.37 85.32L198.736 85.32L201.889 74.0173L254.119 74.0173ZM198.504 74.0173L195.351 85.32L148.809 85.32L145.365 74.0174L198.504 74.0173ZM141.957 74.0174L145.401 85.32L99.8835 85.32L89.8408 74.0174L141.957 74.0174ZM85.5193 74.0174L95.562 85.32L50.1064 85.32L33.4763 74.0174L85.5193 74.0174ZM27.7312 74.0174L44.3613 85.32L0.641846 85.32L-22.678 74.0174L27.7312 74.0174ZM-97.0542 70.7478L-149.229 70.7478L-184.812 59.4461L-126.633 59.4461L-97.0542 70.7478ZM-160.03 70.7478L-195.613 59.4461L-254.181 59.4461L-212.532 70.7478L-160.03 70.7478ZM-225.017 70.7478L-266.666 59.4461L-322.743 59.4461L-275.064 70.7478L-225.017 70.7478ZM-289.24 70.7478L-336.919 59.4461L-391.476 59.4461L-337.716 70.7478L-289.24 70.7478ZM-353.609 70.7478L-407.368 59.4461L-460.441 59.4461L-400.533 70.7478L-353.609 70.7478ZM-418.17 70.7478L-478.078 59.4461L-528.843 59.4461L-462.92 70.7478L-418.17 70.7478ZM-482.27 70.7478L-548.193 59.4461L-597.883 59.4461L-525.696 70.7478L-482.27 70.7478ZM-546.834 70.7478L-619.021 59.4461L-666.62 59.4462L-588.398 70.7478L-546.834 70.7478ZM-611.263 70.7478L-689.485 59.4462L-735.779 59.4462L-651.37 70.7478H-611.263ZM-676.007 70.7478L-760.416 59.4462L-805.474 59.4462L-714.829 70.7478L-676.007 70.7478ZM-741.256 70.7478L-831.901 59.4462L-874.604 59.4462L-777.73 70.7478H-741.256ZM-805.946 70.7478L-902.82 59.4462L-942.345 59.4462L-839.515 70.7478L-805.946 70.7478ZM-869.444 70.7478L-972.273 59.4462L-1012.32 59.4462L-903.119 70.7478L-869.444 70.7478ZM-934.88 70.7478L-1044.08 59.4462L-1114.13 59.4462L-1002.68 70.7479L-934.88 70.7478ZM-1035.09 70.7479L-1146.54 59.4462L-1183.06 59.4462L-1065.47 70.7479L-1035.09 70.7479ZM1367.9 70.7476L1488.88 59.446L1453.94 59.446L1339.26 70.7476L1367.9 70.7476ZM1305.93 70.7477L1420.6 59.446H1383.3L1274.81 70.7477H1305.93ZM1243.26 70.7477L1351.74 59.446L1314.43 59.446L1211.68 70.7477L1243.26 70.7477ZM1181.78 70.7477L1284.52 59.446L1243.19 59.446L1146.8 70.7477L1181.78 70.7477ZM1118.72 70.7477L1215.11 59.446L1172.61 59.446L1082.4 70.7477L1118.72 70.7477ZM1056.1 70.7477L1146.31 59.446L1103.2 59.446L1018.87 70.7477L1056.1 70.7477ZM994.25 70.7477L1078.58 59.446L1032.77 59.446L954.585 70.7477L994.25 70.7477ZM931.729 70.7477L1009.92 59.446L962.021 59.446L891.161 70.7477L931.729 70.7477ZM870.403 70.7477L941.262 59.446L891.339 59.446L825.302 70.7477L870.403 70.7477ZM805.919 70.7477L871.957 59.446L820.515 59.446L760.64 70.7477L805.919 70.7477ZM743.012 70.7477L802.887 59.446L756.176 59.446L702.875 70.7477L743.012 70.7477ZM687.112 70.7477L740.413 59.446L686.258 59.446L638.793 70.7477L687.112 70.7477ZM624.678 70.7477L672.142 59.446L615.152 59.446L573.817 70.7477L624.678 70.7477ZM561.42 70.7477L602.755 59.446L537.02 59.446L501.236 70.7477L561.42 70.7477ZM490.439 70.7477L526.224 59.446L466.085 59.4461L436.559 70.7477L490.439 70.7477ZM427.479 70.7477L457.005 59.4461L401.042 59.4461L378.113 70.7477L427.479 70.7477ZM370.79 70.7477L393.719 59.4461L335.968 59.4461L319.625 70.7477L370.79 70.7477ZM313.948 70.7477L330.291 59.4461L270.953 59.4461L261.206 70.7477L313.948 70.7477ZM256.939 70.7477L266.686 59.4461L205.954 59.4461L202.802 70.7477L256.939 70.7477ZM199.416 70.7477L202.569 59.4461L140.925 59.4461L144.369 70.7477L199.416 70.7477ZM140.961 70.7477L137.518 59.4461L76.8936 59.4461L86.9355 70.7478L140.961 70.7477ZM82.6143 70.7478L72.5723 59.4461L12.0369 59.4461L28.6655 70.7478L82.6143 70.7478ZM22.9204 70.7478L6.29175 59.4461L-52.7415 59.4461L-29.4238 70.7478L22.9204 70.7478ZM-164.774 44.8729L-135.19 56.1765L-195.106 56.1765L-230.695 44.8729L-164.774 44.8729ZM-241.496 44.8729L-205.907 56.1765L-266.23 56.1765L-307.886 44.8729L-241.496 44.8729ZM-320.371 44.8729L-278.715 56.1765L-336.537 56.1765L-384.225 44.8729L-320.371 44.8729ZM-398.4 44.8729L-350.713 56.1765L-407.028 56.1765L-460.797 44.8729L-398.4 44.8729ZM-476.69 44.8729L-422.921 56.1765L-477.772 56.1765L-537.69 44.8729L-476.69 44.8729ZM-555.327 44.8729L-495.409 56.1765L-547.915 56.1765L-613.85 44.8729L-555.327 44.8729ZM-633.2 44.8729L-567.265 56.1765L-618.767 56.1765L-690.966 44.8729L-633.2 44.8729ZM-767.485 44.8729L-712.105 44.8729L-639.905 56.1765L-689.25 56.1765L-767.485 44.8729ZM-790.35 44.8729L-712.115 56.1765L-760.198 56.1766L-844.622 44.8729L-790.35 44.8729ZM-869.26 44.8729L-784.836 56.1766L-831.698 56.1766L-922.358 44.8729L-869.26 44.8729ZM-948.785 44.8729L-858.125 56.1766L-902.63 56.1766L-999.52 44.873L-948.785 44.8729ZM-1027.74 44.873L-930.845 56.1766L-972.094 56.1766L-1074.94 44.873L-1027.74 44.873ZM-1104.87 44.873L-1002.02 56.1766L-1043.91 56.1766L-1153.13 44.873L-1104.87 44.873ZM-1184.89 44.873L-1075.67 56.1766L-1146.38 56.1766L-1257.85 44.873L-1184.89 44.873ZM-1290.26 44.873L-1178.79 56.1766L-1217.01 56.1766V56.1823L-1334.66 44.873L-1290.26 44.873ZM1644.88 44.8727L1523.88 56.1764L1487.12 56.1764L1601.81 44.8727L1644.88 44.8727ZM1568.48 44.8727L1453.78 56.1764L1414.68 56.1764L1523.18 44.8727L1568.48 44.8727ZM1491.63 44.8727L1383.13 56.1764L1344.15 56.1764L1446.91 44.8727L1491.63 44.8727ZM1417.01 44.8727L1314.25 56.1764L1271.08 56.1764L1367.48 44.8727L1417.01 44.8727ZM1339.41 44.8727L1243 56.1764L1198.7 56.1764L1288.93 44.8728L1339.41 44.8727ZM1262.63 44.8728L1172.4 56.1764L1127.59 56.1764L1211.94 44.8728L1262.63 44.8728ZM1187.32 44.8728L1102.98 56.1764L1055.39 56.1764L1133.6 44.8728L1187.32 44.8728ZM1110.74 44.8728L1032.54 56.1764L982.52 56.1764L1053.39 44.8728L1110.74 44.8728ZM1032.63 44.8728L961.761 56.1764L910.444 56.1764L976.493 44.8728L1032.63 44.8728ZM957.11 44.8728L891.062 56.1764L837.837 56.1764L897.722 44.8728L957.11 44.8728ZM880.094 44.8728L820.209 56.1764L771.596 56.1764L824.906 44.8728L880.094 44.8728ZM809.144 44.8728L755.833 56.1764L699.989 56.1764L747.462 44.8728L809.144 44.8728ZM733.346 44.8728L685.874 56.1764L627.11 56.1764L668.452 44.8728L733.346 44.8728ZM656.055 44.8728L614.713 56.1764L547.373 56.1764L583.163 44.8728L656.055 44.8728ZM572.366 44.8728L536.576 56.1764L474.627 56.1764L504.157 44.8728L572.366 44.8728ZM495.078 44.8728L465.547 56.1764L407.676 56.1765L430.609 44.8728L495.078 44.8728ZM423.285 44.8728L400.352 56.1765L340.696 56.1765L357.042 44.8728L423.285 44.8728ZM351.365 44.8728L335.019 56.1765L273.773 56.1765L283.522 44.8728L351.365 44.8728ZM279.255 44.8728L269.506 56.1765L206.866 56.1765L210.02 44.8728L279.255 44.8728ZM206.634 44.8728L203.481 56.1765L139.929 56.1765L136.485 44.8729L206.634 44.8728ZM133.077 44.8729L136.521 56.1765L73.9885 56.1765L63.9448 44.8729L133.077 44.8729ZM59.6233 44.8729L69.667 56.1765L7.22632 56.1765L-9.40527 44.8729L59.6233 44.8729ZM-15.1506 44.8729L1.48096 56.1765L-59.4873 56.1765L-82.8091 44.8729L-15.1506 44.8729ZM-173.332 41.6033L-211.812 26.9002L-287.281 26.9003L-240.989 41.6033L-173.332 41.6033ZM-319.935 41.6033L-251.79 41.6033L-298.082 26.9003L-374.118 26.9003L-319.935 41.6033ZM-332.42 41.6033L-386.603 26.9003L-460.048 26.9003L-398.019 41.6033L-332.42 41.6033ZM-412.194 41.6033L-474.223 26.9003L-546.289 26.9003L-476.35 41.6033L-412.194 41.6033ZM-492.243 41.6033L-562.182 26.9003L-632.959 26.9003L-555.021 41.6033L-492.243 41.6033ZM-572.658 41.6033L-650.596 26.9003H-718.686L-632.922 41.6033L-572.658 41.6033ZM-652.272 41.6033L-738.036 26.9003L-805.763 26.9003L-711.85 41.6033L-652.272 41.6033ZM-732.989 41.6033L-826.901 26.9003L-891.877 26.9003L-790.114 41.6033L-732.989 41.6033ZM-812.979 41.6033L-914.742 26.9003H-978.855L-869.042 41.6033L-812.979 41.6033ZM-893.679 41.6033L-1003.49 26.9003H-1066.51L-948.582 41.6033L-893.679 41.6033ZM-975.009 41.6033L-1092.93 26.9003L-1153.57 26.9003L-1027.55 41.6033L-975.009 41.6033ZM-1055.76 41.6034L-1181.79 26.9003L-1238.47 26.9003L-1104.69 41.6034L-1055.76 41.6034ZM-1134.62 41.6034L-1268.4 26.9003H-1326.79L-1184.73 41.6034L-1134.62 41.6034ZM-1216.49 41.6034L-1358.55 26.9003L-1435.1 26.9004L-1290.1 41.6034L-1216.49 41.6034ZM-1322.51 41.6034L-1467.51 26.9004L-1521.62 26.9004L-1368.67 41.6034L-1322.51 41.6034ZM1679.88 41.6031L1837.27 26.9001L1784.18 26.9001L1634.99 41.6031L1679.88 41.6031ZM1601.65 41.6031L1750.84 26.9001L1695.69 26.9001L1554.56 41.6031L1601.65 41.6031ZM1523.01 41.6031L1664.14 26.9001L1610.3 26.9001L1476.63 41.6031L1523.01 41.6031ZM1446.73 41.6031L1580.39 26.9001L1520.77 26.9001L1395.37 41.6031L1446.73 41.6031ZM1367.29 41.6031L1492.69 26.9001L1432.38 26.9001L1315.02 41.6031L1367.29 41.6031ZM1288.72 41.6031L1406.08 26.9001L1346.05 26.9001L1236.33 41.6031L1288.72 41.6031ZM1211.72 41.6032L1321.43 26.9001L1257.94 26.9001L1156.22 41.6032L1211.72 41.6032ZM1133.36 41.6032L1235.08 26.9001L1166.08 26.9001L1073.89 41.6032L1133.36 41.6032ZM1053.13 41.6032L1145.32 26.9001L1081.51 26.9001L995.598 41.6032L1053.13 41.6032ZM976.215 41.6032L1062.13 26.9001L992.939 26.9001L915.044 41.6032L976.215 41.6032ZM897.416 41.6032L975.311 26.9001L909.67 26.9001L840.327 41.6032L897.416 41.6032ZM824.564 41.6032L893.907 26.9001L822.943 26.9002L761.193 41.6032L824.564 41.6032ZM747.078 41.6032L808.827 26.9002L734.185 26.9002L680.41 41.6032L747.078 41.6032ZM668.013 41.6032L721.788 26.9002L640.069 26.9002L593.515 41.6032L668.013 41.6032ZM582.719 41.6032L629.273 26.9002L551.111 26.9002L512.699 41.6032L582.719 41.6032ZM503.62 41.6032L542.031 26.9002L467.072 26.9002L437.242 41.6032L503.62 41.6032ZM429.919 41.6032L459.749 26.9002L383.031 26.9002L361.77 41.6032L429.919 41.6032ZM356.093 41.6032L377.354 26.9002L299.023 26.9002L286.342 41.6032L356.093 41.6032ZM282.075 41.6032L294.756 26.9002L215.033 26.9002L210.932 41.6032L282.075 41.6032ZM207.546 41.6032L211.648 26.9002L131.009 26.9002L135.489 41.6032L207.546 41.6032ZM132.081 41.6032L127.601 26.9002L47.9756 26.9002L61.0398 41.6033L132.081 41.6032ZM56.718 41.6033L43.6538 26.9002L-35.8491 26.9002L-14.2158 41.6033L56.718 41.6033ZM-19.9612 41.6033L-41.5945 26.9002L-119.89 26.9002L-89.5549 41.6033L-19.9612 41.6033ZM-297.575 23.6306L-220.37 23.6306L-267.766 5.52116L-354.592 5.52116L-297.575 23.6306ZM-365.393 5.52116L-308.376 23.6306L-386.167 23.6307L-452.904 5.52116L-365.393 5.52116ZM-465.388 5.52116L-398.652 23.6307L-473.842 23.6307L-550.242 5.52116L-465.388 5.52116ZM-564.418 5.52116L-488.017 23.6307L-561.842 23.6307L-647.985 5.52116L-564.418 5.52116ZM-663.878 5.52116L-577.735 23.6307L-650.29 23.6307L-746.285 5.52116H-663.878ZM-763.922 5.52116L-667.927 23.6307H-737.758L-843.392 5.52116H-763.922ZM-862.742 5.52116L-757.108 23.6307L-826.647 23.6307L-942.317 5.52116L-862.742 5.52116ZM-963.456 5.52116L-847.785 23.6307L-914.507 23.6307L-1039.85 5.52116L-963.456 5.52116ZM-1062.71 5.52116L-937.372 23.6307L-1003.27 23.6307L-1138.53 5.52116L-1062.71 5.52116ZM-1163.17 5.52116L-1027.91 23.6307L-1092.73 23.6307L-1237.98 5.52116L-1163.17 5.52116ZM-1264.41 5.52116L-1119.16 23.6307L-1181.6 23.6307L-1336.83 5.52116L-1264.41 5.52116ZM-1365.04 5.52116L-1209.82 23.6307L-1268.22 23.6307L-1432.99 5.52116H-1365.04ZM-1462.92 5.52116L-1298.15 23.6307L-1358.38 23.6307L-1533.37 5.52116H-1462.92ZM-1565.13 5.52116L-1390.15 23.6307L-1467.34 23.6308L-1645.94 5.52116H-1565.13ZM-1678.35 5.52116L-1499.75 23.6308L-1555.63 23.6308H-1555.67L-1744.02 5.52116L-1678.35 5.52116ZM2066.12 5.52116L1872.27 23.6305L1817.36 23.6305L2001.11 5.52116L2066.12 5.52116ZM1967.77 5.52116L1784.02 23.6305L1727.08 23.6305L1900.9 5.52116L1967.77 5.52116ZM1869.35 5.52116L1695.52 23.6305L1640.02 23.6305L1804.65 5.52116H1869.35ZM1774.74 5.52116L1610.12 23.6305L1548.66 23.6305L1703.11 5.52116H1774.74ZM1675.03 5.52116L1520.58 23.6305L1458.48 23.6305L1603.02 5.52116H1675.03ZM1576.72 5.52116L1432.18 23.6305L1370.44 23.6305L1505.57 5.52116L1576.72 5.52116ZM1480.95 5.52116L1345.83 23.6305L1280.56 23.6305L1405.84 5.52116L1480.95 5.52116ZM1382.99 5.52116L1257.7 23.6305L1186.58 23.6305L1300.12 5.52116L1382.99 5.52116ZM1279.36 5.52116L1165.82 23.6305L1100.61 23.6305L1206.43 5.52116L1279.36 5.52116ZM1187.05 5.52116L1081.23 23.6305L1010.26 23.6305L1106.2 5.52116H1187.05ZM1088.57 5.52116L992.633 23.6305L925.09 23.6305L1010.5 5.52116H1088.57ZM994.735 5.52116L909.327 23.6305L836.674 23.6305L912.73 5.52116L994.735 5.52116ZM898.614 5.52116L822.559 23.6305L746.143 23.6306L812.377 5.52116L898.614 5.52116ZM799.979 5.52116L733.746 23.6306L650.422 23.6306L707.761 5.52116L799.979 5.52116ZM696.964 5.52116L639.625 23.6306L559.653 23.6306L606.964 5.52116L696.964 5.52116ZM597.884 5.52116L550.573 23.6306L473.706 23.6306L510.447 5.52116L597.884 5.52116ZM503.123 5.52116L466.382 23.6306L387.76 23.6306L413.947 5.52116H503.123ZM408.269 5.52116L382.082 23.6306L301.843 23.6306L317.462 5.52116H408.269ZM313.195 5.52116L297.576 23.6306L215.945 23.6306L220.997 5.52116L313.195 5.52116ZM217.612 5.52116L212.56 23.6306L130.012 23.6306L124.494 5.52116L217.612 5.52116ZM121.087 5.52116L126.605 23.6306L45.0703 23.6306L28.9795 5.52116L121.087 5.52116ZM24.6577 5.52116L40.7488 23.6306L-40.6599 23.6306L-67.3052 5.52116L24.6577 5.52116ZM-73.0505 5.52116L-46.4053 23.6306L-126.636 23.6306L-164 5.52116H-73.0505ZM-276.323 2.25155L-326.901 -17.0735L-425.73 -17.0735L-364.886 2.25155L-276.323 2.25155ZM-375.687 2.25155L-436.531 -17.0735L-536.169 -17.0735L-464.953 2.25155L-375.687 2.25155ZM-477.438 2.25155L-548.654 -17.0735L-645.564 -17.0735L-564.036 2.25155L-477.438 2.25155ZM-578.212 2.25155L-659.74 -17.0735L-755.463 -17.0735L-663.538 2.25155L-578.212 2.25155ZM-679.43 2.25155L-771.356 -17.0735H-866.054L-763.616 2.25155L-679.43 2.25155ZM-781.253 2.25155L-883.691 -17.0735H-975.189L-862.464 2.25155H-781.253ZM-881.814 2.25155L-994.539 -17.0735H-1086.64L-963.201 2.25155H-881.814ZM-984.34 2.25155L-1107.77 -17.0735H-1196.23L-1062.48 2.25155H-984.34ZM-1085.34 2.25155L-1219.1 -17.0735H-1307.28L-1162.95 2.25155L-1085.34 2.25155ZM-1187.59 2.25155L-1331.92 -17.0735H-1419.2L-1264.2 2.25155L-1187.59 2.25155ZM-1290.63 2.25155L-1445.63 -17.0735L-1530.5 -17.0735L-1364.85 2.25155L-1290.63 2.25155ZM-1393.07 2.25155L-1558.72 -17.0735L-1638.57 -17.0735L-1462.74 2.25155L-1393.07 2.25155ZM-1492.67 2.25155L-1668.5 -17.0735L-1751.69 -17.0735L-1564.96 2.25155L-1492.67 2.25155ZM-1596.72 2.25155L-1783.45 -17.0735L-1868.76 -17.0735L-1678.18 2.25155H-1596.72ZM-1710.59 2.25155L-1901.17 -17.0735L-1979.06 -17.0735L-1778.03 2.25155H-1710.59ZM2101.12 2.25155L2307.98 -17.0735L2230.38 -17.0735L2034.29 2.25155H2101.12ZM2000.95 2.25155L2197.04 -17.0735L2117.78 -17.0735L1932.29 2.25155H2000.95ZM1900.73 2.25155L2086.23 -17.0735L2010.05 -17.0735L1834.37 2.25155H1900.73ZM1804.47 2.25155L1980.15 -17.0735L1895.82 -17.0735L1731 2.25155L1804.47 2.25155ZM1702.92 2.25155L1867.74 -17.0735L1783.37 -17.0735L1629.12 2.25155L1702.92 2.25155ZM1602.82 2.25155L1757.07 -17.0735L1674.17 -17.0735L1529.97 2.25155L1602.82 2.25155ZM1505.35 2.25155L1649.55 -17.0735L1562.16 -17.0735L1428.46 2.25155L1505.35 2.25155ZM1405.61 2.25155L1539.3 -17.0735L1441.78 -17.0735L1320.62 2.25155L1405.61 2.25155ZM1299.86 2.25155L1421.02 -17.0735H1338.45L1225.54 2.25155H1299.86ZM1206.15 2.25155L1319.07 -17.0735H1225.91L1123.52 2.25155H1206.15ZM1105.9 2.25155L1208.28 -17.0735H1117.06L1025.92 2.25155L1105.9 2.25155ZM1010.16 2.25155L1101.3 -17.0735H1007.62L926.461 2.25155L1010.16 2.25155ZM912.346 2.25155L993.507 -17.0735L895.014 -17.0735L824.335 2.25155L912.346 2.25155ZM811.938 2.25155L882.617 -17.0735L779.302 -17.0735L718.113 2.25155L811.938 2.25155ZM707.317 2.25155L768.505 -17.0735L665.993 -17.0735L615.506 2.25155L707.317 2.25155ZM606.426 2.25155L656.913 -17.0735L556.287 -17.0735L517.08 2.25155L606.426 2.25155ZM509.757 2.25155L548.964 -17.0735L446.62 -17.0735L418.675 2.25155H509.757ZM412.997 2.25155L440.943 -17.0735L336.949 -17.0735L320.282 2.25155L412.997 2.25155ZM316.015 2.25155L332.682 -17.0735L227.3 -17.0735L221.909 2.25155L316.015 2.25155ZM218.524 2.25155L223.915 -17.0735L117.61 -17.0735L123.498 2.25155L218.524 2.25155ZM120.091 2.25155L114.202 -17.0735L8.90332 -17.0735L26.0745 2.25155L120.091 2.25155ZM21.7527 2.25155L4.58154 -17.0735L-100.55 -17.0735L-72.116 2.25155L21.7527 2.25155ZM-77.8613 2.25155L-106.295 -17.0735L-210.618 -17.0735L-170.746 2.25155H-77.8613ZM-326.364 -20.3431L-224.789 -20.3431L-277.993 -46.1305L-277.447 -46.9466H-395.991L-326.364 -20.3431ZM-404.848 -46.8559L-335.458 -20.3431L-436.024 -20.3431L-519.784 -46.9466L-404.8 -46.9466L-404.848 -46.8559ZM-530.585 -46.9466L-446.825 -20.3431L-548.218 -20.3431L-646.256 -46.9466H-530.585ZM-658.741 -46.9466L-560.703 -20.3431L-659.358 -20.3431L-771.593 -46.9466L-658.741 -46.9466ZM-785.769 -46.9466L-673.534 -20.3431L-771.016 -20.3431L-897.563 -46.9466H-785.769ZM-913.455 -46.9466L-786.908 -20.3431L-883.385 -20.3431L-1024.4 -46.9466L-913.455 -46.9466ZM-1042.04 -46.9466L-901.022 -20.3431L-994.261 -20.3431L-1149.44 -46.9466H-1042.04ZM-1168.79 -46.9466L-1013.61 -20.3431L-1107.52 -20.3431L-1277.44 -46.9466H-1168.79ZM-1298.58 -46.9466L-1128.66 -20.3431L-1218.86 -20.3431L-1402.99 -46.9466L-1298.58 -46.9466ZM-1425.85 -46.9466L-1241.73 -20.3431H-1331.7L-1530.4 -46.9466H-1425.85ZM-1555.03 -46.9466L-1356.34 -20.3431H-1445.42L-1658.79 -46.9466L-1555.03 -46.9466ZM-1685.22 -46.9466L-1471.85 -20.3431H-1558.53L-1786.56 -46.9466H-1685.22ZM-1814.78 -46.9466L-1586.74 -20.3431H-1668.32L-1910.38 -46.9466L-1814.78 -46.9466ZM-1940.3 -46.9466L-1698.25 -20.3431H-1783.28L-2040.33 -46.9466H-1940.3ZM-2071.83 -46.9196L-1815.04 -20.3431H-1901.01L-2163.36 -46.9466L-2071.83 -46.9466L-2071.83 -46.9196ZM-2195.77 -46.9466L-1933.42 -20.3431H-2013.07L-2289.81 -46.9466H-2195.77ZM2627.76 -46.9466L2342.98 -20.3431L2263.55 -20.3431L2533.5 -46.9466L2627.76 -46.9466ZM2500.16 -46.9466L2230.22 -20.3431L2149.17 -20.3431L2404.53 -46.9466H2500.16ZM2372.97 -46.9466L2117.61 -20.3431H2039.78L2281.62 -46.9466L2372.97 -46.9466ZM2251.72 -46.9466L2009.87 -20.3431H1923.71L2150.6 -46.9466H2251.72ZM2122.53 -46.9466L1895.63 -20.3431H1809.47L2021.81 -46.9466L2122.53 -46.9466ZM1995.51 -46.9466L1783.17 -20.3431H1698.56L1897.07 -46.9466H1995.51ZM1872.46 -46.9466L1673.95 -20.3431H1584.78L1768.83 -46.9466L1872.46 -46.9466ZM1745.97 -46.9466L1561.92 -20.3431H1462.28L1629.08 -46.9466H1745.97ZM1608.32 -46.9466L1441.52 -20.3431H1357.56L1513.01 -46.9466H1608.32ZM1493.62 -46.9466L1338.18 -20.3431L1243.23 -20.3431L1384.17 -46.9466L1493.62 -46.9466ZM1366.54 -46.9466L1225.6 -20.3431L1132.48 -20.3431L1257.95 -46.9466H1366.54ZM1242.18 -46.9466L1116.72 -20.3431L1021.35 -20.3431L1133.08 -46.9466L1242.18 -46.9466ZM1118.97 -46.9466L1007.24 -20.3431L906.973 -20.3431L1004.27 -46.9466H1118.97ZM991.875 -46.9466L894.575 -20.3431L789.654 -20.3431L873.888 -46.9466L991.875 -46.9466ZM863.092 -46.9466L778.858 -20.3431L674.535 -20.3431L744.036 -46.9466H863.092ZM734.957 -46.9466L665.455 -20.3431L562.921 -20.3431L616.895 -46.9466L734.957 -46.9466ZM609.571 -46.9466L555.597 -20.3431L451.348 -20.3431L489.818 -46.9466H609.571ZM484.141 -46.9466L445.671 -20.3431L339.769 -20.3431L362.714 -46.9466L484.141 -46.9466ZM358.447 -46.9466L335.502 -20.3431L228.212 -20.3431L235.633 -46.9466H358.447ZM232.248 -46.9466L224.827 -20.3431L116.614 -20.3431L108.508 -46.9466H232.248ZM105.1 -46.9466L113.206 -20.3431L5.99829 -20.3431L-17.6399 -46.9466L105.1 -46.9466ZM-21.9617 -46.9466L1.67651 -20.3431L-105.361 -20.3431L-144.503 -46.9466H-21.9617Z" fill="url(#paint1_linear_1354_108)"/>
        <path fill-rule="evenodd" clip-rule="evenodd" d="M616.873 767.039L560.378 731.127H453.695L492.741 765.932L491.949 767.039H616.873ZM519.025 700.983L561.302 727.857H662.852L609.223 700.983H519.025ZM513.881 697.714L474.915 672.945L553.27 672.945L602.698 697.714H513.881ZM437.834 649.373L469.772 669.675L546.745 669.675L506.231 649.373L437.834 649.373ZM432.69 646.104L407.772 630.264L468.098 630.264L499.707 646.104L432.69 646.104ZM377.703 611.15L402.629 626.995L461.573 626.995L429.954 611.15L377.703 611.15ZM372.559 607.881L347.641 592.041L391.821 592.041L423.429 607.881L372.559 607.881ZM317.571 572.927L342.497 588.772L385.296 588.772L353.677 572.927L317.571 572.927ZM312.428 569.658L311.192 568.872L310.791 569.658L-206.916 569.658L-206.919 569.638L-206.99 569.658L-343.169 569.658L-343.213 569.301L-344.919 569.658L-721.308 569.658V570.16L-873.22 588.772H-876.455V589.168L-1029.19 607.881H-1031.26V608.135L-1185.2 626.995H-1188.42V627.389L-1341.17 646.104H-1343.57V646.398L-1533.56 669.675H-1536.87V670.082L-1762.41 697.714H-1763.28V697.821L-2008.44 727.857H-2013.97V728.535L-2328.24 767.039H-2328.44V767.063L-2328.49 767.07L-2328.44 767.851V770.308H-2328.26L-2328.26 770.331L-2328.07 770.308H-2200.03L-2200.02 770.542L-2198.21 770.308H-2071.81L-2071.78 770.715L-2068.8 770.308H-1815.79L-1815.77 770.577L-1814.02 770.308H-1687.56L-1687.51 770.756L-1684.79 770.308H-1430.97L-1430.97 770.313L-1430.94 770.308H-1289.38L-1289.35 770.541L-1288.24 770.308H-1177.72L-1177.62 771.071L-1174.23 770.308H-1048.01L-1047.9 771.042L-1044.94 770.308H-918.355L-918.271 770.826L-916.41 770.308H-662.392L-662.38 770.364L-662.225 770.308H-534.272L-534.083 770.876L-532.711 770.308H-404.478L-404.113 771.215L-402.306 770.308H-276.251L-275.817 771.145L-274.522 770.308H-147.665L-147.278 770.839L-146.692 770.308H874.298L875.316 770.732L875.419 770.308H1002.74L1003.31 770.511L1003.35 770.308H1130.04L1131.17 770.659L1131.23 770.308H1257.98L1259.26 770.663L1259.32 770.308H1386.81L1387.35 770.442L1387.37 770.308H1513.79L1515.79 770.756L1515.85 770.308H1643.82L1644.15 770.376L1644.16 770.308H1771.33L1772.4 770.511L1772.42 770.308H1900.75L1900.81 770.32L1900.82 770.308H2542.48L2542.91 770.366L2542.92 770.308H2670.89L2671.26 770.354L2671.26 770.308H2671.49V767.1L2671.49 767.094L2671.49 767.039H2671.06L2365.74 728.545V727.857H2360.28L2122.3 697.853V697.714H2121.19L1711.9 646.112V646.104H1711.83L1105.59 569.671V569.658H1105.48L1104.42 569.524L1104.41 569.658L1058.45 569.658L1057.52 569.535L1057.52 569.658L964.707 569.658L963.764 569.53L963.754 569.658L917.517 569.658L916.883 569.566L916.875 569.658L871.121 569.658L870.026 569.49L870.011 569.658L824.29 569.658L823.146 569.47L823.128 569.658L776.942 569.658L776.262 569.538L776.25 569.658L729.938 569.658L729.396 569.555L729.385 569.658L682.813 569.658L682.521 569.598L682.513 569.658L636.219 569.658L635.666 569.533L635.649 569.658L589.375 569.658L588.802 569.516L588.781 569.658L542.449 569.658L541.949 569.52L541.927 569.658L495.525 569.658L495.082 569.52L495.057 569.658L448.598 569.658L448.248 569.533L448.222 569.658L401.005 569.658L400.944 569.632L400.938 569.658L354.426 569.658L353.639 569.263L353.48 569.658L312.428 569.658ZM400.457 572.927L360.95 572.927L392.569 588.772L438.493 588.772L400.457 572.927ZM408.854 572.927L446.892 588.772L492.647 588.772L448.126 572.927L408.854 572.927ZM495.112 572.927L457.786 572.927L502.307 588.772L546.08 588.772L495.112 572.927ZM506.043 572.927L557.011 588.772L599.549 588.772L542.081 572.927L506.043 572.927ZM554.308 572.927L611.776 588.772L653.084 588.772L589.045 572.927L554.308 572.927ZM602.59 572.927L666.63 588.772L706.388 588.772L635.917 572.927L602.59 572.927ZM650.761 572.927L721.231 588.772L759.703 588.772L682.537 572.927L650.761 572.927ZM698.737 572.927L775.902 588.772L813.301 588.772L729.684 572.927L698.737 572.927ZM747.193 572.927L830.81 588.772L866.938 588.772L776.707 572.927L747.193 572.927ZM795.562 572.927L885.793 588.772L920.967 588.772L824.07 572.927L795.562 572.927ZM844.285 572.927L941.182 588.772L974.471 588.772L870.916 572.927L844.285 572.927ZM892.49 572.927L996.046 588.772L1027.25 588.772L917.324 572.927L892.49 572.927ZM940.2 572.927L1050.12 588.772L1081.26 588.772L964.524 572.927L940.2 572.927ZM988.795 572.927L1105.53 588.772L1177.41 588.772L1058.27 572.927L988.795 572.927ZM1083.04 572.927L1202.18 588.772L1230.98 588.772L1105.31 572.927L1083.04 572.927ZM-719.47 572.927L-719.449 573.222L-846.369 588.772L-819.157 588.772L-696.57 572.927L-719.47 572.927ZM-671.112 572.927L-671.112 572.929L-793.686 588.772L-764.275 588.772L-648.311 572.927L-671.112 572.927ZM-624.202 572.927V572.928L-740.161 588.772L-710.008 588.772L-600.18 572.927L-624.202 572.927ZM-577.322 572.927L-687.151 588.772L-654.929 588.772L-551.889 572.927L-577.322 572.927ZM-530.42 572.927L-633.459 588.772L-600.08 588.772L-503.651 572.927L-530.42 572.927ZM-483.531 572.927L-579.961 588.772L-545.621 588.772L-455.474 572.927L-483.531 572.927ZM-436.635 572.927L-526.782 588.772L-490.824 588.772L-407.243 572.927L-436.635 572.927ZM-389.741 572.927L-473.322 588.772L-436.296 588.772L-360.549 572.927L-389.741 572.927ZM-344.638 572.927L-420.384 588.772L-380.294 588.772L-309.702 572.927L-344.638 572.927ZM-295.886 572.927L-295.856 573.157L-365.427 588.772L-325.155 588.772L-261.151 572.927L-295.886 572.927ZM-248.975 572.927L-248.928 573.253L-311.617 588.772L-275.726 588.772L-218.748 572.927L-248.975 572.927ZM-206.619 572.927L-263.597 588.772L-220.86 588.772L-170.122 572.927L-206.619 572.927ZM-159.236 572.927L-209.975 588.772L-165.568 588.772L-121.382 572.927L-159.236 572.927ZM-112.33 572.927L-112.293 573.108L-155.974 588.772L-102.963 588.772L-64.7102 572.927L-112.33 572.927ZM-57.3352 572.927L-57.1963 573.345L-94.4404 588.772L-47.9497 588.772L-16.3875 572.927L-57.3352 572.927ZM-10.9263 572.927L-10.623 573.68L-40.6865 588.772L0.310059 588.772L24.8208 572.927L-10.9263 572.927ZM29.5315 572.927L29.8542 573.549L6.30542 588.772L48.6306 588.772L66.1008 572.927L29.5315 572.927ZM70.1533 572.927L70.4661 573.357L53.4695 588.772L96.8628 588.772L107.282 572.927L70.1533 572.927ZM111.174 572.927L100.755 588.772L145.086 588.772L148.456 572.927L111.174 572.927ZM151.795 572.927L148.424 588.772L193.331 588.772L189.65 572.927L151.795 572.927ZM193.001 572.927L196.683 588.772L240.773 588.772L230.038 572.927L193.001 572.927ZM233.965 572.927L244.7 588.772L289.104 588.772L271.328 572.927L233.965 572.927ZM276.214 572.927L311.503 572.927L336.429 588.772L293.99 588.772L276.214 572.927ZM430.703 607.881L399.094 592.041L446.343 592.041L484.367 607.881L430.703 607.881ZM454.741 592.041L501.835 592.041L546.342 607.881L492.766 607.881L454.741 592.041ZM556.001 607.881L511.494 592.041L556.597 592.041L607.549 607.881L556.001 607.881ZM618.48 607.881L567.528 592.041L611.408 592.041L668.857 607.881L618.48 607.881ZM681.083 607.881L623.635 592.041L666.299 592.041L730.318 607.881L681.083 607.881ZM743.864 607.881L679.845 592.041L720.93 592.041L791.378 607.881L743.864 607.881ZM806.221 607.881L735.773 592.041L775.627 592.041L852.768 607.881L806.221 607.881ZM868.967 607.881L791.826 592.041L830.556 592.041L914.145 607.881L868.967 607.881ZM931.654 607.881L848.064 592.041L885.557 592.041L975.759 607.881L931.654 607.881ZM994.615 607.881L904.413 592.041L940.962 592.041L1037.83 607.881L994.615 607.881ZM1058.04 607.881L961.177 592.041L995.84 592.041L1099.36 607.881L1058.04 607.881ZM1120.94 607.881L1017.42 592.041L1049.93 592.041L1159.82 607.881L1120.94 607.881ZM1182.69 607.881L1072.81 592.041L1105.35 592.041L1222.04 607.881L1182.69 607.881ZM1246.31 607.881L1129.62 592.041L1202 592.041L1321.1 607.881L1246.31 607.881ZM1345.87 607.881L1226.76 592.041L1256.88 592.041V592.036L1382.55 607.881L1345.87 607.881ZM-1002.34 607.881L-873.055 592.041L-844.453 592.041L-967 607.881L-1002.34 607.881ZM-941.53 607.881L-818.983 592.041L-788.205 592.041L-904.131 607.881L-941.53 607.881ZM-880.017 607.881L-764.091 592.041L-732.672 592.041L-842.464 607.881L-880.017 607.881ZM-819.607 607.881L-709.814 592.041L-676.192 592.041L-779.198 607.881L-819.607 607.881ZM-757.728 607.881L-654.722 592.041L-619.979 592.041L-716.377 607.881L-757.728 607.881ZM-696.258 607.881L-599.859 592.041L-564.223 592.041L-654.341 607.881L-696.258 607.881ZM-635.503 607.881L-545.385 592.041L-508.072 592.041L-591.626 607.881L-635.503 607.881ZM-574.124 607.881L-490.57 592.041L-451.926 592.041L-527.648 607.881L-574.124 607.881ZM-511.737 607.881L-436.015 592.041L-394.861 592.041L-465.431 607.881L-511.737 607.881ZM-450.563 607.881L-379.994 592.041L-338.363 592.041L-402.347 607.881L-450.563 607.881ZM-388.808 607.881L-324.824 592.041L-287.483 592.041L-344.443 607.881L-388.808 607.881ZM-332.314 607.881L-275.354 592.041L-231.33 592.041L-282.052 607.881L-332.314 607.881ZM-271.167 607.881L-220.445 592.041L-174.686 592.041L-218.857 607.881L-271.167 607.881ZM-209.263 607.881L-165.092 592.041L-110.856 592.041L-149.096 607.881L-209.263 607.881ZM-140.574 607.881L-102.334 592.041L-54.4629 592.041L-86.0149 607.881L-140.574 607.881ZM-78.7517 607.881L-47.1997 592.041L-4.7478 592.041L-29.2507 607.881L-78.7517 607.881ZM-23.2551 607.881L1.24756 592.041L45.0256 592.041L27.561 607.881L-23.2551 607.881ZM32.3999 607.881L49.8645 592.041L94.7126 592.041L84.2961 607.881L32.3999 607.881ZM88.188 607.881L98.6045 592.041L144.39 592.041L141.021 607.881L88.188 607.881ZM144.36 607.881L147.729 592.041L194.09 592.041L197.77 607.881L144.36 607.881ZM201.122 607.881L197.442 592.041L242.988 592.041L253.719 607.881L201.122 607.881ZM257.646 607.881L246.915 592.041L292.772 592.041L310.542 607.881L257.646 607.881ZM315.427 607.881L297.658 592.041L341.573 592.041L366.491 607.881L315.427 607.881ZM437.228 611.15L492.217 611.15L530.254 626.995L468.847 626.995L437.228 611.15ZM500.615 611.15L538.652 626.995L600.05 626.995L555.529 611.15L500.615 611.15ZM565.188 611.15L609.709 626.995L669.034 626.995L618.066 611.15L565.188 611.15ZM628.998 611.15L679.966 626.995L738.183 626.995L680.716 611.15L628.998 611.15ZM692.942 611.15L750.41 626.995L807.573 626.995L743.533 611.15L692.942 611.15ZM757.079 611.15L821.118 626.995L876.39 626.995L805.92 611.15L757.079 611.15ZM820.763 611.15L891.233 626.995L945.858 626.995L868.692 611.15L820.763 611.15ZM884.891 611.15L962.057 626.995L1015.02 626.995L931.4 611.15L884.891 611.15ZM948.909 611.15L1032.53 626.995L1084.61 626.995L994.379 611.15L948.909 611.15ZM1013.23 611.15L1103.47 626.995L1154.72 626.995L1057.82 611.15L1013.23 611.15ZM1078.04 611.15L1174.94 626.995L1224.29 626.995L1120.73 611.15L1078.04 611.15ZM1142.31 611.15L1245.86 626.995L1292.42 626.995L1182.5 611.15L1142.31 611.15ZM1205.38 611.15L1315.3 626.995L1362.86 626.995L1246.13 611.15L1205.38 611.15ZM1270.4 611.15L1387.14 626.995L1464.83 626.995L1345.69 611.15L1270.4 611.15ZM1370.45 611.15L1489.6 626.995L1534.16 626.995L1408.48 611.15L1370.45 611.15ZM-1029.02 611.151L-1158.35 626.995L-1114.88 626.995L-992.297 611.151L-1029.02 611.151ZM-966.827 611.151L-1089.41 626.995L-1044.02 626.995L-928.061 611.151L-966.827 611.151ZM-903.947 611.151L-1019.91 626.995L-974.956 626.995L-865.128 611.151L-903.947 611.151ZM-842.27 611.15L-952.098 626.995L-903.5 626.995L-800.461 611.15L-842.27 611.15ZM-778.991 611.15L-882.031 626.995L-832.705 626.995L-736.276 611.15L-778.991 611.15ZM-716.156 611.15L-812.586 626.995L-763.09 626.995L-672.943 611.15L-716.156 611.15ZM-654.105 611.15L-744.252 626.995L-692.455 626.995L-608.874 611.15L-654.105 611.15ZM-591.372 611.15L-674.953 626.995L-619.025 626.995L-543.279 611.15L-591.372 611.15ZM-527.368 611.15L-603.114 626.995L-550.59 626.995L-479.998 611.15L-527.368 611.15ZM-465.13 611.15L-535.722 626.995L-479.56 626.995L-415.555 611.15L-465.13 611.15ZM-402.016 611.15L-466.021 626.995L-413.178 626.995L-356.2 611.15L-402.016 611.15ZM-344.072 611.15L-401.049 626.995L-343.261 626.995L-292.522 611.15L-344.072 611.15ZM-281.637 611.15L-332.375 626.995L-272.161 626.995L-227.975 611.15L-281.637 611.15ZM-218.381 611.15L-262.567 626.995L-195.242 626.995L-156.99 611.15L-218.381 611.15ZM-148.468 611.15L-186.72 626.995L-124.09 626.995L-92.5278 611.15L-148.468 611.15ZM-85.2646 611.15L-116.827 626.995L-58.8193 626.995L-34.3086 611.15L-85.2646 611.15ZM-28.313 611.15L-52.8237 626.995L6.48584 626.995L23.9561 611.15L-28.313 611.15ZM28.7949 611.15L11.3247 626.995L71.7263 626.995L82.146 611.15L28.7949 611.15ZM86.0378 611.15L75.6182 626.995L136.956 626.995L140.326 611.15L86.0378 611.15ZM143.664 611.15L140.294 626.995L202.211 626.995L198.53 611.15L143.664 611.15ZM201.882 611.15L205.563 626.995L266.668 626.995L255.934 611.15L201.882 611.15ZM259.861 611.15L270.596 626.995L331.985 626.995L314.21 611.15L259.861 611.15ZM319.095 611.15L336.871 626.995L396.561 626.995L371.635 611.15L319.095 611.15ZM506.98 646.104L475.371 630.264L538.103 630.264L576.128 646.104L506.98 646.104ZM584.526 646.104L546.501 630.264L609.237 630.264L653.744 646.104L584.526 646.104ZM663.403 646.104L618.896 630.264L679.552 630.264L730.503 646.104L663.403 646.104ZM741.435 646.104L690.483 630.264L750.042 630.264L807.491 646.104L741.435 646.104ZM819.718 646.104L762.269 630.264L820.788 630.264L884.806 646.104L819.718 646.104ZM898.352 646.104L834.333 630.264L890.932 630.264L961.38 646.104L898.352 646.104ZM976.223 646.104L905.775 630.264L961.781 630.264L1038.92 646.104L976.223 646.104ZM1055.12 646.104L977.98 630.264L1032.27 630.264L1115.86 646.104L1055.12 646.104ZM1133.37 646.104L1049.78 630.264L1103.23 630.264L1193.43 646.104L1133.37 646.104ZM1212.29 646.104L1122.09 630.264L1174.71 630.264L1271.58 646.104L1212.29 646.104ZM1291.8 646.104L1194.93 630.264L1245.66 630.264L1349.18 646.104L1291.8 646.104ZM1370.75 646.104L1267.23 630.264L1315.1 630.264L1424.99 646.104L1370.75 646.104ZM1447.87 646.104L1337.98 630.264L1386.95 630.264L1503.65 646.104L1447.87 646.104ZM1527.92 646.104L1411.22 630.264L1489.42 630.264L1608.52 646.104L1527.92 646.104ZM1633.29 646.104L1514.18 630.264L1560.03 630.264V630.256L1685.73 646.104L1633.29 646.104ZM-1314.32 646.104L-1185.03 630.265L-1140.18 630.265L-1262.73 646.104L-1314.32 646.104ZM-1237.26 646.104L-1114.71 630.265L-1067.95 630.265L-1183.88 646.104H-1237.26ZM-1159.77 646.104L-1043.84 630.265L-997.62 630.265L-1107.41 646.104L-1159.77 646.104ZM-1084.55 646.104L-974.762 630.265L-924.763 630.265L-1027.77 646.104L-1084.55 646.104ZM-1006.3 646.104L-903.294 630.265L-852.604 630.265L-949.002 646.104L-1006.3 646.104ZM-928.883 646.104L-832.484 630.265L-781.693 630.265L-871.81 646.104L-928.883 646.104ZM-852.972 646.104L-762.854 630.265L-709.702 630.265L-793.257 646.104L-852.972 646.104ZM-775.755 646.104L-692.201 630.265L-634.656 630.265L-710.378 646.104L-775.755 646.104ZM-694.467 646.104L-618.745 630.265L-565.157 630.265L-635.727 646.104L-694.467 646.104ZM-620.859 646.104L-550.289 630.265L-492.767 630.265L-556.751 646.104L-620.859 646.104ZM-543.213 646.104L-479.229 630.265L-424.936 630.265L-481.895 646.104L-543.213 646.104ZM-469.766 646.104L-412.807 630.265L-353.731 630.265L-404.453 646.104L-469.766 646.104ZM-393.567 646.104L-342.845 630.265L-281.278 630.265L-325.45 646.104L-393.567 646.104ZM-315.856 646.104L-271.685 630.265L-203.136 630.265L-241.376 646.104L-315.856 646.104ZM-232.854 646.104L-194.614 630.265L-130.603 630.265L-162.155 646.104L-232.854 646.104ZM-154.892 646.104L-123.34 630.265L-63.8772 630.265L-88.3799 646.104L-154.892 646.104ZM-82.3843 646.104L-57.8816 630.265L2.88086 630.265L-14.5837 646.104L-82.3843 646.104ZM-9.74487 646.104L7.71973 630.265L69.5762 630.265L59.1599 646.104L-9.74487 646.104ZM63.0518 646.104L73.468 630.265L136.26 630.265L132.891 646.104L63.0518 646.104ZM136.23 646.104L139.599 630.265L202.97 630.265L206.65 646.104L136.23 646.104ZM210.002 646.104L206.322 630.265L268.884 630.264L279.615 646.104L210.002 646.104ZM283.542 646.104L272.811 630.264L335.654 630.264L353.423 646.104L283.542 646.104ZM358.309 646.104L340.539 630.264L401.705 630.264L426.623 646.104L358.309 646.104ZM513.505 649.373L554.019 669.675L632.714 669.675L583.977 649.373L513.505 649.373ZM662.931 649.373L592.375 649.373L641.112 669.675L719.976 669.675L662.931 649.373ZM672.59 649.373L729.635 669.675L806.326 669.675L741.021 649.373L672.59 649.373ZM751.952 649.373L817.258 669.675L892.983 669.675L819.35 649.373L751.952 649.373ZM831.576 649.373L905.21 669.675L980.075 669.675L898.021 649.373L831.576 649.373ZM911.567 649.373L993.621 669.675L1066.22 669.675L975.922 649.373L911.567 649.373ZM990.765 649.373L1081.06 669.675L1153.72 669.675L1054.85 649.373L990.765 649.373ZM1071.04 649.373L1169.92 669.675L1240.25 669.675L1133.12 649.373L1071.04 649.373ZM1150.62 649.373L1257.76 669.675L1327.66 669.675L1212.05 649.373H1150.62ZM1230.91 649.373L1346.52 669.675L1415.73 669.675L1291.58 649.373L1230.91 649.373ZM1311.79 649.373L1435.94 669.675L1503.23 669.675L1370.55 649.373L1311.79 649.373ZM1392.12 649.373L1524.81 669.675L1588.52 669.675L1447.67 649.373L1392.12 649.373ZM1470.55 649.373L1611.39 669.675L1677.31 669.675L1527.74 649.373L1470.55 649.373ZM1552.01 649.373L1701.58 669.675L1785.77 669.675L1633.11 649.373L1552.01 649.373ZM1657.87 649.373L1810.53 669.675L1872.69 669.675L1711.66 649.373L1657.87 649.373ZM-1341 649.374L-1506.71 669.675L-1445.09 669.675L-1288.02 649.374L-1341 649.374ZM-1262.55 649.374L-1419.62 669.675L-1356.39 669.675L-1207.81 649.374L-1262.55 649.374ZM-1183.7 649.374L-1332.28 669.675L-1270.8 669.675L-1130.08 649.374L-1183.7 649.374ZM-1107.22 649.374L-1247.94 669.675L-1181.06 669.675L-1049.03 649.374H-1107.22ZM-1027.56 649.374L-1159.59 669.675L-1092.46 669.675L-968.901 649.374L-1027.56 649.374ZM-948.781 649.374L-1072.34 669.675L-1005.92 669.675L-890.413 649.374L-948.781 649.374ZM-871.574 649.374L-987.079 669.675L-917.597 669.675L-810.504 649.374L-871.574 649.374ZM-793.002 649.374L-900.095 669.675L-823.062 669.675L-726.008 649.374L-793.002 649.374ZM-710.097 649.374L-807.151 669.675L-740.743 669.675L-650.294 649.374H-710.097ZM-635.426 649.374L-725.876 669.675L-651.969 669.675L-569.959 649.374L-635.426 649.374ZM-556.42 649.374L-638.43 669.675L-566.658 669.675L-493.653 649.374L-556.42 649.374ZM-481.524 649.374L-554.529 669.675L-479.933 669.675L-414.923 649.374L-481.524 649.374ZM-404.037 649.374L-469.048 669.675L-391.183 669.675L-334.568 649.374L-404.037 649.374ZM-324.974 649.374L-381.589 669.675L-298.282 669.675L-249.269 649.374L-324.974 649.374ZM-240.747 649.374L-289.76 669.675L-209.109 669.675L-168.668 649.374L-240.747 649.374ZM-161.405 649.374L-201.846 669.675L-124.843 669.675L-93.4377 649.374L-161.405 649.374ZM-87.4421 649.374L-118.848 669.675L-40.5732 669.675L-18.1887 649.374L-87.4421 649.374ZM-13.3499 649.374L-35.7344 669.675L43.6589 669.675L57.0098 649.374L-13.3499 649.374ZM60.9016 649.374L47.5508 669.675L127.878 669.675L132.196 649.374L60.9016 649.374ZM135.534 649.374L131.216 669.675L212.126 669.675L207.41 649.374L135.534 649.374ZM210.762 649.374L215.478 669.675L295.584 669.675L281.83 649.374L210.762 649.374ZM285.757 649.373L299.511 669.675L379.867 669.675L357.091 649.373L285.757 649.373ZM361.977 649.373L384.753 669.675L463.704 669.675L431.766 649.373L361.977 649.373ZM640.563 672.945L560.543 672.945L609.972 697.714H700.025L640.563 672.945ZM708.423 697.714L648.961 672.945L729.163 672.945L798.762 697.714H708.423ZM808.421 697.714L738.823 672.945L816.844 672.945L896.521 697.714H808.421ZM907.452 697.714L827.775 672.945L904.842 672.945L994.679 697.714H907.452ZM1006.91 697.714L917.068 672.945L993.29 672.945L1093.4 697.714H1006.91ZM1106.95 697.714L1006.84 672.945L1080.76 672.945L1190.92 697.714H1106.95ZM1205.77 697.714L1095.6 672.945L1169.64 672.945L1290.27 697.714H1205.77ZM1306.47 697.714L1185.84 672.945L1257.51 672.945L1388.22 697.714H1306.47ZM1405.73 697.714L1275.02 672.945L1346.28 672.945L1487.34 697.714H1405.73ZM1506.2 697.714L1365.14 672.945L1435.72 672.945L1587.2 697.714H1506.2ZM1607.42 697.714L1455.94 672.945L1524.6 672.945L1686.49 697.714H1607.42ZM1708.06 697.714L1546.18 672.945L1611.2 672.945L1783.04 697.714H1708.06ZM1805.92 697.714L1634.08 672.945L1701.4 672.945L1883.88 697.714H1805.92ZM1908.15 697.714L1725.67 672.945L1810.35 672.945L1996.6 697.714H1908.15ZM2021.37 697.714L1835.12 672.945L1898.62 672.945L2095.09 697.714H2021.37ZM-1735.56 697.714L-1533.39 672.945L-1470.39 672.945L-1662.02 697.714H-1735.56ZM-1636.55 697.714L-1444.92 672.945L-1380.32 672.945L-1561.6 697.714H-1636.55ZM-1537.49 697.714L-1356.21 672.945L-1293.46 672.945L-1465.15 697.714H-1537.49ZM-1442.29 697.714L-1270.6 672.945L-1202.32 672.945L-1363.4 697.714H-1442.29ZM-1341.93 697.714L-1180.85 672.945L-1112.35 672.945L-1263.1 697.714H-1341.93ZM-1242.98 697.714L-1092.24 672.945L-1024.52 672.945L-1165.44 697.714H-1242.98ZM-1146.6 697.714L-1005.68 672.945L-934.845 672.945L-1065.5 697.714H-1146.6ZM-1048 697.714L-917.343 672.945L-838.693 672.945L-957.104 697.714H-1048ZM-941.192 697.714L-822.782 672.945L-755.31 672.945L-865.664 697.714H-941.192ZM-850.796 697.714L-740.443 672.945L-665.176 672.945L-765.232 697.714H-850.796ZM-751.693 697.714L-651.637 672.945L-578.416 672.945L-667.486 697.714H-751.693ZM-655.358 697.714L-566.287 672.945L-490.404 672.945L-569.72 697.714H-655.358ZM-558.835 697.714L-479.518 672.945L-400.301 672.945L-469.374 697.714H-558.835ZM-459.781 697.714L-390.707 672.945L-306.176 672.945L-365.974 697.714H-459.781ZM-357.452 697.714L-297.654 672.945L-215.622 672.945L-264.962 697.714H-357.452ZM-257.698 697.714L-208.359 672.945L-129.901 672.945L-168.218 697.714H-257.698ZM-162.222 697.714L-123.906 672.945L-44.1782 672.945L-71.4885 697.714H-162.222ZM-66.6497 697.714L-39.3394 672.945L41.5088 672.945L25.22 697.714H-66.6497ZM29.1121 697.714L45.4006 672.945L127.182 672.945L121.914 697.714H29.1121ZM125.252 697.714L130.521 672.945L212.886 672.945L218.641 697.714H125.252ZM221.992 697.714L216.238 672.945L297.799 672.945L314.58 697.714H221.992ZM318.507 697.714L301.726 672.945L383.535 672.945L411.323 697.714H318.507ZM416.209 697.714L388.421 672.945L468.847 672.945L507.813 697.714H416.209ZM616.497 700.983L670.126 727.857H772.388L707.874 700.983H616.497ZM716.272 700.983L780.787 727.857H883.461L807.949 700.983H716.272ZM817.608 700.983L893.121 727.857H993.486L907.038 700.983H817.608ZM917.97 700.983L1004.42 727.857H1104.01L1006.54 700.983H917.97ZM1018.76 700.983L1116.24 727.857H1215.23L1106.62 700.983H1018.76ZM1120.16 700.983L1228.78 727.857H1324.99L1205.46 700.983H1120.16ZM1220.31 700.983L1339.83 727.857H1437.08L1306.2 700.983H1220.31ZM1322.4 700.983L1453.28 727.857H1547.3L1405.48 700.983H1322.4ZM1422.99 700.983L1564.81 727.857H1659L1505.96 700.983H1422.99ZM1524.81 700.983L1677.86 727.857H1771.54L1607.2 700.983H1524.81ZM1627.41 700.983L1791.76 727.857H1883.5L1707.85 700.983H1627.41ZM1729.43 700.983L1905.07 727.857H1992.16L1805.72 700.983H1729.43ZM1828.6 700.983L2015.04 727.857H2105.96L1907.97 700.983H1828.6ZM1932.24 700.983L2130.23 727.857H2223.27L2021.19 700.983H1932.24ZM2045.96 700.983L2248.03 727.857H2334.18L2121.02 700.983H2045.96ZM-1762.24 700.983L-1981.59 727.857H-1895.24L-1687.32 700.983H-1762.24ZM-1661.85 700.983L-1869.77 727.857H-1782.22L-1585.53 700.983H-1661.85ZM-1561.42 700.983L-1758.11 727.857H-1674.09L-1487.81 700.983H-1561.42ZM-1464.96 700.983L-1651.24 727.857H-1559.42L-1384.66 700.983H-1464.96ZM-1363.19 700.983L-1537.95 727.857H-1446.55L-1283 700.983H-1363.19ZM-1262.88 700.983L-1426.43 727.857H-1336.94L-1184.04 700.983H-1262.88ZM-1165.21 700.983L-1318.1 727.857H-1224.51L-1082.75 700.983H-1165.21ZM-1065.25 700.983L-1207.01 727.857H-1101.21L-972.734 700.983H-1065.25ZM-956.823 700.983L-1085.3 727.857H-999.963L-880.231 700.983H-956.823ZM-865.363 700.983L-985.095 727.857H-886.998L-778.44 700.983H-865.363ZM-764.901 700.983L-873.459 727.857H-775.884L-679.244 700.983H-764.901ZM-667.115 700.983L-763.755 727.857H-666.248L-580.19 700.983H-667.115ZM-569.305 700.983L-655.362 727.857H-553.436L-478.492 700.983H-569.305ZM-468.899 700.983L-543.842 727.857H-438.747L-373.867 700.983H-468.899ZM-365.345 700.983L-430.225 727.857H-325.007L-271.475 700.983H-365.345ZM-264.211 700.983L-317.744 727.857H-214.848L-173.275 700.983H-264.211ZM-167.28 700.983L-208.853 727.857H-104.725L-75.0935 700.983H-167.28ZM-70.2546 700.983L-99.8857 727.857H5.39697L23.0698 700.983H-70.2546ZM26.9619 700.983L9.28906 727.857H115.502L121.218 700.983H26.9619ZM124.557 700.983L118.841 727.857H225.644L219.4 700.983H124.557ZM222.752 700.983L228.996 727.857H335.002L316.795 700.983H222.752ZM320.722 700.983L338.929 727.857H445.141L414.991 700.983H320.722ZM419.877 700.983L450.026 727.857H555.234L512.957 700.983H419.877ZM669.377 731.127H566.446L620.679 765.601L619.945 767.039H741.042L669.377 731.127ZM747.561 766.66L676.651 731.127H780.238L866.448 767.039H747.408L747.561 766.66ZM874.847 767.039L788.636 731.127H892.649L993.556 767.039H874.847ZM1003.22 767.039L902.308 731.127H1004L1119.52 767.039H1003.22ZM1130.45 767.039L1014.93 731.127H1115.87L1246.12 767.039H1130.45ZM1258.34 767.039L1128.09 731.127H1228.45L1373.59 767.039H1258.34ZM1387.14 767.039L1241.99 731.127H1339.53L1499.25 767.039H1387.14ZM1514.1 767.039L1354.37 731.127H1453L1627.9 767.039H1514.1ZM1644.1 767.039L1469.2 731.127H1564.56L1754.07 767.039H1644.1ZM1771.58 767.039L1582.07 731.127H1677.62L1882.13 767.039H1771.58ZM1900.98 767.039L1696.48 731.127H1791.54L2011.15 767.039H1900.98ZM2029.51 766.734L1811.75 731.127H1904.86L2139.57 767.039H2029.48L2029.51 766.734ZM2158.09 766.57L1926.44 731.127H2014.85L2263.98 767.039H2158.04L2158.09 766.57ZM2286.36 766.966L2037.72 731.127H2130.05L2394.63 767.039H2286.35L2286.36 766.966ZM2414.81 766.484L2154.32 731.127H2247.86L2517.89 767.039H2414.77L2414.81 766.484ZM2542.66 767.039L2272.62 731.127H2360.11L2644.95 767.039H2542.66ZM-2301.39 767.039L-2008.28 731.127H-1920.54L-2198.38 767.039H-2301.39ZM-2172.91 767.039L-1895.07 731.127H-1806.15L-2068.98 767.039H-2172.91ZM-2044.87 767.039L-1782.04 731.127H-1696.76L-1943.77 766.763L-1943.75 767.039H-2044.87ZM-1922.82 767.039L-1673.9 731.127H-1580.69L-1814.23 767.039H-1922.82ZM-1792.76 767.039L-1559.22 731.127H-1466.45L-1685.01 767.039H-1792.76ZM-1664.89 767.039L-1446.33 731.127H-1355.55L-1559.58 766.99L-1559.58 767.039H-1664.89ZM-1541.02 767.039L-1336.71 731.127H-1241.76L-1431.2 767.039H-1541.02ZM-1413.7 767.039L-1224.26 731.127H-1116.84L-1288.52 767.039H-1413.7ZM-1272.61 767.039L-1100.93 731.127H-1014.53L-1174.53 767.039H-1272.61ZM-1159.66 767.039L-999.662 731.127H-900.206L-1045.27 767.039H-1159.66ZM-1031.73 767.039L-886.667 731.127H-787.642L-916.781 767.039H-1031.73ZM-904.652 767.039L-775.513 731.127H-676.718L-790.968 766.805L-790.926 767.039H-904.652ZM-780.83 767.039L-665.832 731.127H-562.553L-662.7 767.039H-780.83ZM-653.107 767.039L-552.96 731.127H-446.641L-533.34 767.039H-653.107ZM-524.818 767.039L-438.119 731.127H-331.521L-403.056 767.039H-524.818ZM-395.793 767.039L-324.257 731.127H-219.906L-275.459 767.039H-395.793ZM-269.464 767.039L-213.911 731.127H-108.33L-147.926 767.039H-269.464ZM-143.087 767.039L-103.491 731.127H3.24683L-20.3694 767.039H-143.087ZM-16.4773 767.039L7.13892 731.127H114.807L107.168 767.039H-16.4773ZM110.507 767.039L118.145 731.127H226.403L234.747 767.039H110.507ZM238.098 767.039L229.755 731.127H337.217L361.547 767.039H238.098ZM365.104 766.492L341.145 731.127H448.809L489.097 767.039H364.456L365.104 766.492Z" fill="url(#paint2_linear_1354_108)"/>
    </g>
    <defs>
        <linearGradient id="paint0_linear_1354_108" x1="171.5" y1="0.87207" x2="171.5" y2="650.872" gradientUnits="userSpaceOnUse">
            <stop stop-color="#2F5478"/>
            <stop offset="1" stop-color="#22405C"/>
        </linearGradient>
        <linearGradient id="paint1_linear_1354_108" x1="171.5" y1="103.872" x2="171.5" y2="-51.5483" gradientUnits="userSpaceOnUse">
            <stop offset="0.0989583" stop-color="#2F5478" stop-opacity="0"/>
            <stop offset="1" stop-color="#3D6C99"/>
        </linearGradient>
        <linearGradient id="paint2_linear_1354_108" x1="171.5" y1="568.872" x2="171.5" y2="771.215" gradientUnits="userSpaceOnUse">
            <stop offset="0.0989583" stop-color="#2F5478" stop-opacity="0"/>
            <stop offset="1" stop-color="#3D6C99"/>
        </linearGradient>
        <clipPath id="clip0_1354_108">
            <rect y="0.87207" width="343" height="650" rx="16" fill="white"/>
        </clipPath>
    </defs>
</svg>
